<?xml version="1.0" encoding="utf-8"?>
<!-- Generator: Adobe Illustrator 23.0.3, SVG Export Plug-In . SVG Version: 6.00 Build 0)  -->
<svg version="1.1" id="Слой_1" xmlns="http://www.w3.org/2000/svg" xmlns:xlink="http://www.w3.org/1999/xlink" x="0px" y="0px"
	 viewBox="0 0 102 117.2" style="enable-background:new 0 0 102 117.2;" xml:space="preserve">
<style type="text/css">
	.st0{fill-rule:evenodd;clip-rule:evenodd;fill:#2D7D2F;}
	.st1{fill:#72BF44;}
</style>
<g>
	<path class="st0" d="M38.1,33.5v13.6h49.5v27.4H38.1v32c3.9,1.8,7.9,3.1,12,4c24.1-5,46.7-26.5,47.5-64.6l0.2-12.5
		C97.7,33.5,38.1,33.5,38.1,33.5z"/>
	<path class="st1" d="M97.9,33.5l0.6-29.6C82.6,2.6,66.4,2,50.2,2S18,2.6,2,3.8L2.4,27l0.4,19c0,0,0.2,17.7,6.1,30.2
		c9.8,22.8,29.4,30.5,29.4,30.5v-32h49.5V47.3H38.1V33.6L97.9,33.5C97.9,33.6,97.9,33.5,97.9,33.5z"/>
</g>
</svg>
